<?xml version="1.0" encoding="utf-8"?>
<!-- Generator: Adobe Illustrator 19.0.0, SVG Export Plug-In . SVG Version: 6.00 Build 0)  -->
<svg version="1.1" id="Layer_2" xmlns="http://www.w3.org/2000/svg" xmlns:xlink="http://www.w3.org/1999/xlink" x="0px" y="0px"
	 viewBox="0 0 247.5 59.1" style="enable-background:new 0 0 247.5 59.1;" xml:space="preserve">
<style type="text/css">
	.st0{fill:#FFFFFF;}
</style>
<g id="XMLID_56_">
	<path id="XMLID_57_" class="st0" d="M6.4,24c0,0.1,0.1,0.2,0.1,0.4c0,0.2,0.1,0.3,0.1,0.5c0.1,0.2,0.1,0.4,0.1,0.5
		c0,0.2,0.1,0.3,0.1,0.4C7,25.8,7,26,7.1,26.2c0.1,0.2,0.1,0.3,0.1,0.3c0.1,0.1,0.2,0.2,0.4,0.5c0.2,0.3,0.3,0.4,0.4,0.5L8.4,28
		c0,0,0.1,0,0.3,0C8.8,28,9,28,9,28c0.1,0,0.2,0,0.3,0c0.1,0,0.2,0,0.3,0c-0.1-0.1-0.2-0.2-0.5-0.5c-0.3-0.3-0.4-0.4-0.5-0.5
		c0,0-0.1-0.1-0.2-0.2s-0.2-0.2-0.2-0.4c-0.1-0.1-0.2-0.3-0.2-0.4c-0.1-0.1-0.1-0.2-0.1-0.2c0-0.1-0.1-0.1-0.3-0.3
		c-0.1-0.1-0.2-0.2-0.2-0.3c0,0,0-0.1,0-0.1V25v-0.2c0,0,0-0.1,0-0.1c0-0.1,0.1-0.3,0.1-0.5c0.1-0.2,0.1-0.3,0.1-0.3h6.5V0.8h10v9.6
		L24,10.7c-0.1,0-0.2,0-0.4,0c-0.2,0-0.4,0-0.6,0.1c-0.2,0-0.4,0.1-0.6,0.1c-0.2,0-0.3,0.1-0.4,0.1c-0.1,0-0.2,0.1-0.4,0.2
		c-0.2,0.1-0.4,0.2-0.6,0.3c0,0-0.1,0.1-0.1,0.1c-0.1,0.1-0.1,0.1-0.1,0.2c0,0,0,0,0,0v0.1v0c0,0,0,0.1,0,0.1c0.1,0,0.3,0,0.6,0
		c0.3,0,0.6,0,0.9,0.1c0.3,0,0.6,0.1,0.9,0.1c0.3,0,0.5,0.1,0.6,0.1c0.1,0,0.2,0.1,0.3,0.1c0.1,0.1,0.2,0.1,0.2,0.1v19.8H0.8V24H6.4
		z"/>
	<path id="XMLID_59_" class="st0" d="M27.8,25.2c0.2,0,0.4-0.1,0.6-0.1c0.2,0,0.4-0.1,0.6-0.1c0.2,0,0.3,0,0.4,0
		c0.1,0,0.3-0.1,0.7-0.1c0.4-0.1,0.6-0.1,0.8-0.1c0.1,0,0.3-0.1,0.6-0.1c0.3-0.1,0.5-0.1,0.6-0.1L27.4,24V10.7c0,0,0-0.1,0.1-0.1
		c0.1-0.1,0.1-0.1,0.2-0.1c0.1,0,0.2-0.1,0.4-0.1c0.2-0.1,0.4-0.1,0.6-0.1c0.1-0.1,0.3-0.1,0.7-0.2c0.4-0.1,0.6-0.1,0.8-0.1
		c0.1,0,0.2,0,0.4,0c0.2,0,0.4,0,0.7-0.1c0.3,0,0.5-0.1,0.7-0.1c0.2,0,0.3-0.1,0.4-0.1c0.1,0,0.1,0,0.3-0.1c0.1-0.1,0.2-0.1,0.2-0.1
		c0.1,0,0.3-0.1,0.6-0.1c0.3-0.1,0.5-0.1,0.6-0.1V9c-0.2-0.1-0.4-0.1-0.6-0.1c-0.2,0-0.3-0.1-0.5-0.1c-0.2,0-0.3,0-0.4,0
		c-0.2,0-0.4,0-0.8,0c-0.4,0-0.8,0-1.3,0s-0.9,0-1.3,0c-0.4,0-0.7,0-0.8,0c-0.1,0-0.1-0.1-0.3-0.1c-0.1-0.1-0.2-0.1-0.3-0.2
		c0,0-0.1,0-0.1-0.1c-0.1-0.1-0.1-0.1-0.1-0.1c-0.1-0.1-0.1-0.1-0.2-0.3c-0.1-0.1-0.1-0.2-0.1-0.2V0.8h23.7v8.3H37.8v3.2H44
		c0.1,0,0.2,0.1,0.4,0.3c0.2,0.2,0.3,0.4,0.4,0.5c0,0.1,0.1,0.2,0.1,0.4c0.1,0.2,0.1,0.4,0.2,0.6c0.1,0.2,0.1,0.4,0.1,0.6
		c0,0.2,0.1,0.3,0.1,0.4c0-0.1,0.1-0.2,0.1-0.4c0.1-0.2,0.1-0.4,0.2-0.6c0.1-0.2,0.2-0.4,0.2-0.6c0.1-0.2,0.1-0.3,0.2-0.4
		c0.1-0.1,0.2-0.3,0.4-0.5c0.2-0.2,0.3-0.3,0.4-0.3h4.5v8.3H37.8v3.2h13.4v8.3h-4.2c0,0-0.1,0-0.1-0.1c-0.1-0.1-0.1-0.1-0.2-0.2
		c0-0.1-0.1-0.1-0.1-0.3c-0.1-0.1-0.1-0.2-0.1-0.3c0,0,0-0.2-0.1-0.6c-0.1-0.4-0.1-0.7-0.1-0.9c0-0.1,0-0.2,0-0.3
		c0-0.2-0.1-0.3-0.1-0.5c0-0.2-0.1-0.4-0.1-0.5c0-0.2,0-0.3,0-0.4c0,0-0.1,0.1-0.1,0.1c-0.1,0.1-0.1,0.1-0.1,0.1
		c0,0.1-0.1,0.2-0.1,0.5c-0.1,0.3-0.1,0.4-0.1,0.5c0,0.1-0.1,0.3-0.1,0.5c0,0.3-0.1,0.5-0.1,0.8c0,0.3-0.1,0.6-0.1,0.8
		c0,0.3,0,0.4,0,0.5h-9.6c0,0-0.1-0.1-0.3-0.2c-0.2-0.1-0.3-0.2-0.4-0.3c0,0,0-0.1-0.1-0.1c-0.1-0.1-0.1-0.1-0.1-0.2
		c-0.1-0.1-0.2-0.3-0.4-0.5c-0.2-0.2-0.3-0.4-0.4-0.4c-0.1-0.1-0.1-0.2-0.2-0.4c-0.1-0.2-0.1-0.3-0.2-0.5s-0.2-0.3-0.2-0.4
		S33.1,29,33.1,29c0-0.1-0.1-0.4-0.1-0.7c0-0.3-0.1-0.7-0.1-1c0-0.4,0-0.7-0.1-1c0-0.3,0-0.6,0-0.7c0,0.1-0.1,0.3-0.1,0.6
		c-0.1,0.3-0.1,0.6-0.2,0.9c-0.1,0.3-0.1,0.6-0.1,0.9c0,0.3-0.1,0.5-0.1,0.6v3l-0.7,0.8h-4.2v-6.9C27.5,25.2,27.6,25.2,27.8,25.2z"
		/>
	<path id="XMLID_61_" class="st0" d="M57.4,18.2v-3h3.5v-3h7.8V9.1H54.1V0.8h24.7v14h-3.3v3H72v3h-7.8v3.2h14.6v8.3H54.1v-14H57.4z"
		/>
	<path id="XMLID_63_" class="st0" d="M86.2,22.3c-0.1,0-0.2-0.1-0.4-0.1c-0.2-0.1-0.3-0.1-0.4-0.1c-0.1,0-0.2,0-0.4-0.1
		c-0.2-0.1-0.4-0.1-0.7-0.2c-0.3-0.1-0.5-0.1-0.7-0.1c-0.2,0-0.3-0.1-0.4-0.1l-1-1c-0.1-0.1-0.1-0.1-0.2-0.3
		C82,20.2,82,20.1,82,20.1V0.8h24v15h-2.7v1.5h2.7v14.9H88.4c0-0.1,0-0.2,0-0.4c0-0.2,0-0.3,0-0.4c0,0,0.1-0.1,0.2-0.3
		c0.1-0.2,0.1-0.3,0.1-0.4v-1.4v-1.6c0-0.1,0-0.3,0-0.6c0-0.3-0.1-0.6-0.1-1c0-0.3-0.1-0.7-0.1-1c0-0.3-0.1-0.5-0.1-0.6
		c0-0.1,0-0.2-0.1-0.5c-0.1-0.3-0.1-0.4-0.2-0.5c0-0.1,0-0.1-0.1-0.3c-0.1-0.1-0.1-0.2-0.1-0.2v6.4c0,0.1,0,0.2-0.1,0.4
		c-0.1,0.2-0.1,0.4-0.2,0.6c0,0.1-0.1,0.1-0.1,0.3c-0.1,0.1-0.1,0.2-0.1,0.2c-0.1,0.1-0.2,0.2-0.3,0.3c-0.1,0.1-0.3,0.3-0.4,0.4
		c-0.1,0.1-0.3,0.3-0.5,0.5H82v-8.9c0,0,0.1-0.1,0.3-0.1c0.2-0.1,0.3-0.1,0.5-0.1c0,0,0.1,0,0.3,0c0.1,0,0.3-0.1,0.5-0.1
		c0.2,0,0.3-0.1,0.5-0.1c0.1,0,0.2,0,0.3,0c0.1,0,0.2,0,0.4-0.1c0.2-0.1,0.4-0.1,0.6-0.2c0.2-0.1,0.4-0.1,0.6-0.1
		C86,22.3,86.1,22.3,86.2,22.3z M92.4,12.2h3.4v-1.4h4.8c-0.1-0.1-0.3-0.1-0.6-0.2c-0.3-0.1-0.5-0.1-0.6-0.1c-0.1,0-0.2,0-0.4,0
		c-0.2,0-0.4-0.1-0.6-0.1c-0.2,0-0.4-0.1-0.6-0.1c-0.2,0-0.3,0-0.4,0c-0.1,0-0.3,0-0.5-0.1c-0.2,0-0.4,0-0.5-0.1
		c-0.2,0-0.4-0.1-0.6-0.1V9.2h-3.4V12.2z M92.4,23.8h3.2v-3h-3.2V23.8z"/>
	<path id="XMLID_67_" class="st0" d="M126.2,0.8c0.1,0.1,0.2,0.2,0.3,0.3c0.2,0.1,0.3,0.2,0.4,0.2c0.1,0,0.3-0.1,0.5-0.2
		s0.4-0.2,0.5-0.3h5.2v24.6c-0.1,0-0.2,0-0.4,0c-0.2,0-0.3-0.1-0.4-0.1c-0.1,0-0.2-0.1-0.5-0.2c-0.3-0.2-0.4-0.2-0.5-0.2
		c-0.1,0-0.2,0-0.5,0c-0.2,0-0.5-0.1-0.8-0.1c-0.3,0-0.6-0.1-0.8-0.1c-0.3,0-0.5,0-0.6,0c0,0-0.1,0-0.3,0c-0.1,0-0.3,0-0.5,0
		c-0.2,0-0.3,0-0.5,0c-0.2,0-0.3,0-0.4,0c-0.1,0-0.2,0-0.4,0c-0.2,0-0.3,0-0.5,0c-0.2,0-0.3,0-0.4,0s-0.2,0-0.2,0c0,0-0.1,0-0.3,0.1
		c-0.2,0.1-0.3,0.1-0.4,0.2c-0.1,0.1-0.3,0.1-0.5,0.2c-0.3,0.1-0.4,0.2-0.5,0.2l-0.2,0.2c0,0.1,0,0.1,0,0.1v0.2c0,0,0,0.1,0,0.1
		c0,0.1,0,0.1,0,0.1c0-0.1,0.1-0.1,0.1-0.2c0.1-0.1,0.1-0.1,0.1-0.1c0.1-0.1,0.1-0.1,0.3-0.2c0.1-0.1,0.2-0.1,0.3-0.1
		c0.1-0.1,0.2-0.1,0.5-0.2c0.3-0.1,0.4-0.1,0.5-0.1h1.5h1.5c0,0,0.1,0,0.2,0c0.1,0,0.3,0,0.4,0.1c0.2,0,0.3,0.1,0.5,0.1
		c0.1,0,0.3,0.1,0.3,0.1c0.1,0,0.2,0.1,0.4,0.1c0.2,0.1,0.3,0.1,0.4,0.2c0.1,0,0.2,0.1,0.4,0.2c0.2,0.1,0.3,0.2,0.3,0.2
		c0.1,0,0.2,0.1,0.5,0.1c0.3,0.1,0.4,0.1,0.5,0.1c0.1,0.1,0.1,0.1,0.3,0.1c0.1,0,0.2,0.1,0.3,0.1c0.1,0.1,0.2,0.1,0.4,0.2v5.2h-10.2
		v-8.4h-3.5v8.5c-0.1,0-0.3,0-0.5,0c-0.2,0-0.5,0-0.8,0c-0.3,0-0.5,0-0.8,0c-0.2,0-0.4,0-0.5,0c-0.1,0-0.4-0.1-0.8-0.1
		c-0.4-0.1-0.6-0.1-0.7-0.1c-0.1,0-0.2-0.1-0.5-0.3c-0.3-0.2-0.4-0.2-0.5-0.2c-0.1,0-0.3,0.1-0.6,0.3c-0.2,0.2-0.4,0.3-0.4,0.4h-4.2
		V0.8H126.2z M119.5,16.1h3.2V8.2h-3.2V16.1z"/>
	<path id="XMLID_70_" class="st0" d="M139.8,11.8C139.8,11.8,139.8,11.8,139.8,11.8v-0.1v0c0-0.1,0-0.1-0.1-0.2
		c-0.1-0.1-0.1-0.1-0.1-0.1c-0.1-0.1-0.3-0.1-0.5-0.3c-0.3-0.1-0.4-0.2-0.4-0.2c-0.1,0-0.2-0.1-0.4-0.1c-0.2,0-0.4-0.1-0.6-0.1
		c-0.2,0-0.4,0-0.6-0.1c-0.2,0-0.3,0-0.4,0l-0.2-0.2V0.8h10v23.1h6.6c0.1,0.1,0.1,0.3,0.1,0.4c0.1,0.3,0.1,0.4,0.1,0.5V25v0.2
		c0,0.1-0.1,0.1-0.2,0.3c-0.1,0.1-0.2,0.2-0.3,0.3c0,0,0,0.1-0.1,0.2c-0.1,0.1-0.2,0.2-0.2,0.4c-0.1,0.1-0.2,0.3-0.2,0.4
		c-0.1,0.1-0.1,0.2-0.1,0.2c-0.1,0.1-0.2,0.3-0.5,0.5c-0.3,0.3-0.4,0.4-0.5,0.5c0.1,0,0.2,0,0.3,0c0.2,0,0.3,0,0.3,0
		c0.1,0,0.2,0,0.3,0c0.2,0,0.3,0,0.3,0c0,0,0.1-0.1,0.2-0.2c0.1-0.1,0.2-0.2,0.3-0.3c0.1-0.1,0.3-0.3,0.4-0.5
		c0.2-0.3,0.3-0.4,0.3-0.5c0,0,0.1-0.1,0.1-0.3c0.1-0.2,0.1-0.3,0.1-0.4c0-0.1,0.1-0.2,0.1-0.4c0-0.2,0.1-0.3,0.1-0.5
		c0.1-0.2,0.1-0.4,0.2-0.5c0.1-0.2,0.1-0.3,0.1-0.4h5.7v8.2h-23.4V12.4c0,0,0.1-0.1,0.2-0.1c0.1-0.1,0.2-0.1,0.3-0.1
		c0.1,0,0.3-0.1,0.6-0.1c0.3,0,0.6-0.1,0.9-0.1c0.3,0,0.6,0,0.9-0.1C139.5,11.9,139.7,11.9,139.8,11.8L139.8,11.8z"/>
	<path id="XMLID_72_" class="st0" d="M179.3,0.8c0.1,0.1,0.2,0.2,0.3,0.3c0.2,0.1,0.3,0.2,0.4,0.2c0.1,0,0.3-0.1,0.5-0.2
		s0.4-0.2,0.5-0.3h5.2v24.6c-0.1,0-0.2,0-0.4,0c-0.2,0-0.3-0.1-0.4-0.1c-0.1,0-0.2-0.1-0.5-0.2c-0.3-0.2-0.4-0.2-0.5-0.2
		c-0.1,0-0.2,0-0.5,0c-0.2,0-0.5-0.1-0.8-0.1c-0.3,0-0.6-0.1-0.8-0.1c-0.3,0-0.5,0-0.6,0c0,0-0.1,0-0.3,0c-0.1,0-0.3,0-0.5,0
		c-0.2,0-0.3,0-0.5,0c-0.2,0-0.3,0-0.4,0c-0.1,0-0.2,0-0.4,0c-0.2,0-0.3,0-0.5,0c-0.2,0-0.3,0-0.4,0s-0.2,0-0.2,0c0,0-0.1,0-0.3,0.1
		c-0.2,0.1-0.3,0.1-0.4,0.2c-0.1,0.1-0.3,0.1-0.5,0.2c-0.3,0.1-0.4,0.2-0.5,0.2l-0.2,0.2c0,0.1,0,0.1,0,0.1v0.2c0,0,0,0.1,0,0.1
		c0,0.1,0,0.1,0,0.1c0-0.1,0.1-0.1,0.1-0.2c0.1-0.1,0.1-0.1,0.1-0.1c0.1-0.1,0.1-0.1,0.3-0.2c0.1-0.1,0.2-0.1,0.3-0.1
		c0.1-0.1,0.2-0.1,0.5-0.2c0.3-0.1,0.4-0.1,0.5-0.1h1.5h1.5c0,0,0.1,0,0.2,0c0.1,0,0.3,0,0.4,0.1c0.2,0,0.3,0.1,0.5,0.1
		c0.1,0,0.3,0.1,0.3,0.1c0.1,0,0.2,0.1,0.4,0.1c0.2,0.1,0.3,0.1,0.4,0.2c0.1,0,0.2,0.1,0.4,0.2c0.2,0.1,0.3,0.2,0.3,0.2
		c0.1,0,0.2,0.1,0.5,0.1c0.3,0.1,0.4,0.1,0.5,0.1c0.1,0.1,0.1,0.1,0.3,0.1c0.1,0,0.2,0.1,0.3,0.1c0.1,0.1,0.2,0.1,0.4,0.2v5.2H176
		v-8.4h-3.5v8.5c-0.1,0-0.3,0-0.5,0c-0.2,0-0.5,0-0.8,0c-0.3,0-0.5,0-0.8,0c-0.2,0-0.4,0-0.5,0c-0.1,0-0.4-0.1-0.8-0.1
		c-0.4-0.1-0.6-0.1-0.7-0.1c-0.1,0-0.2-0.1-0.5-0.3c-0.3-0.2-0.4-0.2-0.5-0.2c-0.1,0-0.3,0.1-0.6,0.3c-0.2,0.2-0.4,0.3-0.4,0.4h-4.2
		V0.8H179.3z M172.6,16.1h3.2V8.2h-3.2V16.1z"/>
	<path id="XMLID_75_" class="st0" d="M191.1,27.7L191.1,27.7l0-0.1c0-0.1,0-0.1,0-0.1c0,0-0.1-0.1-0.3-0.1c-0.2-0.1-0.3-0.1-0.4-0.1
		c-0.1-0.1-0.2-0.1-0.5-0.2c-0.3-0.1-0.4-0.1-0.5-0.1V0.8h10.2v3.8h3.7v3.7h4v3.8h1.5V7c0.1,0,0.3,0.1,0.6,0.1c0.3,0,0.7,0.1,1,0.1
		c0.4,0,0.7,0.1,1,0.1c0.3,0,0.5,0,0.7,0c0.1,0,0.3,0,0.5,0c0.2,0,0.5,0,0.8,0c0.3,0,0.5,0,0.8,0c0.3,0,0.4,0,0.5,0
		c0,0,0-0.1,0.1-0.1c0.1,0,0.1-0.1,0-0.1c0,0-0.1,0-0.3-0.1c-0.2-0.1-0.3-0.1-0.4-0.1c-0.1,0-0.3-0.1-0.4-0.1
		c-0.2-0.1-0.4-0.1-0.6-0.2c-0.2,0-0.4-0.1-0.7-0.2c-0.1,0-0.2,0-0.4,0c-0.2,0-0.5-0.1-0.8-0.1c-0.3,0-0.5-0.1-0.8-0.1
		c-0.2,0-0.4,0-0.5,0c-0.1,0-0.2-0.1-0.4-0.1c-0.2-0.1-0.3-0.1-0.4-0.1c-0.1-0.1-0.1-0.1-0.2-0.1c-0.1,0-0.1-0.1-0.1-0.1V0.8h9.6
		v31.4h-5.7c0,0-0.1-0.1-0.2-0.2c-0.1-0.1-0.2-0.2-0.3-0.3c0-0.1-0.1-0.1-0.1-0.3c-0.1-0.1-0.1-0.2-0.1-0.3c0-0.1-0.1-0.2-0.1-0.5
		c-0.1-0.3-0.1-0.4-0.1-0.5c0-0.1,0-0.2,0-0.3s-0.1-0.4-0.1-0.5s-0.1-0.4-0.1-0.5c0-0.2,0-0.3,0-0.3c-0.1-0.2-0.1-0.4-0.2-0.7
		c-0.1-0.3-0.1-0.5-0.1-0.5h-0.2c0,0.1,0,0.4,0,0.8c0,0.4-0.1,0.8-0.1,1.2c0,0.4-0.1,0.8-0.1,1.2c0,0.4,0,0.6,0,0.8
		c0,0.2-0.1,0.4-0.1,0.6s-0.1,0.4-0.1,0.4h-1.8v-3.8h-4v-3.7h-4v-3.8h-1.5v11.4h-10v-3.7c0,0,0.1-0.1,0.2-0.2
		c0.1-0.1,0.2-0.2,0.3-0.3c0.1-0.1,0.3-0.1,0.6-0.2C190.8,27.7,191,27.7,191.1,27.7z"/>
	<path id="XMLID_77_" class="st0" d="M243.8,0.8v2.8h2.8v13.4c-0.1,0-0.3,0.1-0.6,0.1c-0.3,0.1-0.5,0.1-0.6,0.2
		c-0.1,0-0.3,0.1-0.4,0.1c-0.2,0.1-0.3,0.1-0.3,0.1l0,0.1v0.1c0,0,0,0,0,0c0,0.1,0.1,0.1,0.1,0.2c0.1,0.1,0.1,0.1,0.1,0.1
		c0.1,0,0.2,0,0.5,0c0.3,0,0.4,0,0.5,0c0.1,0.1,0.3,0.2,0.4,0.4c0.2,0.2,0.3,0.3,0.3,0.4v10.5h-2.8v2.8h-13.7c0-0.1-0.1-0.4-0.1-0.7
		c-0.1-0.4-0.1-0.6-0.1-0.7c0-0.1-0.1-0.2-0.1-0.5c-0.1-0.3-0.1-0.4-0.1-0.5c-0.1-0.1-0.1-0.3-0.2-0.4c-0.1-0.2-0.1-0.3-0.1-0.3
		l-0.1,0c0,0,0,0,0,0c0,0,0,0,0,0h-0.1c0,0-0.1,0-0.1,0.1c-0.1,0.1-0.1,0.1-0.1,0.1c0,0.1,0,0.2,0,0.4c0,0.2-0.1,0.4-0.1,0.6
		s-0.1,0.4-0.1,0.6c0,0.2,0,0.3,0,0.4c0,0.1,0,0.1-0.1,0.3c-0.1,0.1-0.1,0.2-0.2,0.3c0,0-0.1,0.1-0.1,0.1c-0.1,0.1-0.1,0.1-0.2,0.1
		c-0.1,0.1-0.1,0.1-0.3,0.2c-0.1,0.1-0.2,0.1-0.2,0.1h-5.9V0.8H243.8z M232.1,23.8h4.3v-9.6c0-0.1,0.1-0.1,0.1-0.2
		c0.1-0.1,0.1-0.1,0.1-0.1s0.1-0.1,0.1-0.1c0.1-0.1,0.2-0.2,0.4-0.4c0.2-0.2,0.3-0.3,0.4-0.3c0.1-0.1,0.1-0.1,0.3-0.2
		c0.1-0.1,0.2-0.1,0.2-0.1c0.2,0,0.4,0,0.8,0c0.3,0,0.7-0.1,1.1-0.1c0.4,0,0.8-0.1,1.1-0.1c0.3,0,0.6,0,0.7,0c0.1,0,0.3,0,0.7-0.1
		c0.4-0.1,0.6-0.1,0.8-0.1c0.1,0,0.2-0.1,0.4-0.1c0.2-0.1,0.3-0.1,0.4-0.1l0.2-0.2c0-0.1,0-0.1,0-0.1c0,0,0,0,0-0.1
		c-0.2,0-0.4,0-0.8,0c-0.4,0-0.8,0-1.3,0c-0.5,0-0.9,0-1.3,0c-0.4,0-0.7,0-0.8,0c-0.1,0-0.2,0-0.3,0c-0.1,0-0.3-0.1-0.5-0.1
		c-0.2,0-0.3-0.1-0.5-0.1c-0.1,0-0.2,0-0.3,0h-0.4h-0.3c0,0-0.1,0.1-0.2,0.2s-0.2,0.2-0.3,0.2s-0.2,0.2-0.3,0.2
		c-0.1,0.1-0.2,0.1-0.2,0.1c-0.1,0-0.1,0-0.2-0.1s-0.1-0.1-0.2-0.1V9.2h-4.3V23.8z"/>
</g>
<g id="XMLID_2_">
	<path id="XMLID_80_" class="st0" d="M50.8,59.1V41.6h2.5v15h10v2.5H50.8z"/>
	<path id="XMLID_82_" class="st0" d="M65.8,44.1v-2.5h2.5v2.5H65.8z M65.8,59.1V46.6h2.5v12.5H65.8z"/>
	<path id="XMLID_85_" class="st0" d="M73.3,59.1v-10h-2.5v-2.5h2.5v-2.5h2.5v2.5h5v2.5h-5v10H73.3z M75.8,44.1v-2.5h5v2.5H75.8z"/>
	<path id="XMLID_88_" class="st0" d="M83.3,56.6v-7.5h2.5v2.5h7.5v-2.5h2.5v5h-10v2.5H83.3z M85.8,49.1v-2.5h7.5v2.5H85.8z
		 M85.8,59.1v-2.5h10v2.5H85.8z"/>
	<path id="XMLID_92_" class="st0" d="M103.3,56.6v-7.5h2.5v7.5H103.3z M105.8,49.1v-2.5h7.5v2.5H105.8z M105.8,59.1v-2.5h7.5v2.5
		H105.8z M113.3,56.6v-7.5h2.5v7.5H113.3z"/>
	<path id="XMLID_97_" class="st0" d="M120.8,59.1v-10h-2.5v-2.5h2.5v-2.5h2.5v2.5h5v2.5h-5v10H120.8z M123.3,44.1v-2.5h5v2.5H123.3z
		"/>
	<path id="XMLID_100_" class="st0" d="M135.8,56.6v-2.5h2.5v2.5H135.8z M138.3,49.1v-2.5h7.5v2.5H138.3z M138.3,59.1v-2.5h7.5v-2.5
		h-7.5v-2.5h7.5v-2.5h2.5v10H138.3z"/>
	<path id="XMLID_104_" class="st0" d="M155.8,59.1V41.6h10v2.5h-7.5v2.5h7.5v2.5h-7.5v7.5h7.5v2.5H155.8z M165.8,46.6v-2.5h2.5v2.5
		H165.8z M165.8,56.6v-7.5h2.5v7.5H165.8z"/>
	<path id="XMLID_108_" class="st0" d="M170.8,56.6v-10h2.5v10H170.8z M173.3,59.1v-2.5h7.5v-10h2.5v12.5H173.3z"/>
	<path id="XMLID_111_" class="st0" d="M185.8,59.1V46.6h5v2.5h-2.5v10H185.8z M190.8,54.1v-5h2.5v5H190.8z M193.3,49.1v-2.5h2.5v2.5
		H193.3z M195.8,59.1v-10h2.5v10H195.8z"/>
</g>
</svg>
