<?xml version="1.0" encoding="utf-8"?>
<!-- Generator: Adobe Illustrator 16.0.0, SVG Export Plug-In . SVG Version: 6.00 Build 0)  -->
<!DOCTYPE svg PUBLIC "-//W3C//DTD SVG 1.1//EN" "http://www.w3.org/Graphics/SVG/1.1/DTD/svg11.dtd">
<svg version="1.1" id="Layer_2" xmlns="http://www.w3.org/2000/svg" xmlns:xlink="http://www.w3.org/1999/xlink" x="0px" y="0px"
	 width="612px" height="163px" viewBox="0 318.5 612 163" enable-background="new 0 318.5 612 163" xml:space="preserve">
<g>
	<g opacity="0.75">
		<path id="XMLID_326_" d="M22.826,389.276c0,0.247,0.247,0.495,0.247,0.989c0,0.494,0.247,0.742,0.247,1.236
			c0.248,0.495,0.248,0.989,0.248,1.236c0,0.495,0.247,0.742,0.247,0.989c0.495,0,0.495,0.495,0.742,0.989
			c0.248,0.495,0.248,0.742,0.248,0.742c0.247,0.248,0.495,0.495,0.989,1.236c0.494,0.742,0.742,0.989,0.989,1.236l0.989,1.237
			c0,0,0.247,0,0.742,0c0.247,0,0.742,0,0.742,0c0.248,0,0.495,0,0.742,0c0.247,0,0.494,0,0.742,0
			c-0.248-0.248-0.495-0.495-1.236-1.237c-0.742-0.741-0.989-0.989-1.236-1.236c0,0-0.248-0.247-0.495-0.494
			c-0.248-0.248-0.495-0.495-0.495-0.989c-0.247-0.247-0.495-0.742-0.495-0.989c-0.247-0.247-0.247-0.495-0.247-0.495
			c0-0.247-0.248-0.247-0.742-0.742c-0.248-0.247-0.495-0.495-0.495-0.742v-0.247v-0.248v-0.495v-0.247
			c0-0.248,0.247-0.742,0.247-1.236c0.248-0.495,0.248-0.742,0.248-0.742h16.072v-57.12h24.728v23.738l-0.248,0.742
			c-0.247,0-0.494,0-0.989,0s-0.989,0-1.484,0.247c-0.494,0-0.989,0.248-1.483,0.248s-0.742,0.247-0.989,0.247
			c-0.247,0-0.495,0.247-0.989,0.495c-0.495,0.247-0.989,0.495-1.484,0.742l-0.247,0.248c-0.248,0.247-0.248,0.247-0.248,0.494l0,0
			v0.248l0,0v0.247c0.248,0,0.742,0,1.484,0c0.742,0,1.483,0,2.225,0.248c0.742,0,1.484,0.247,2.226,0.247s1.236,0.248,1.484,0.248
			c0.247,0,0.494,0.247,0.742,0.247c0.247,0.247,0.495,0.247,0.495,0.247v48.96H8.978v-20.523H22.826z"/>
		<path id="XMLID_325_" d="M75.742,392.244c0.495,0,0.989-0.247,1.484-0.247s0.989-0.248,1.483-0.248s0.742,0,0.989,0
			c0.247,0,0.742-0.247,1.731-0.247c0.989-0.248,1.483-0.248,1.978-0.248c0.248,0,0.742-0.247,1.484-0.247
			c0.742-0.248,1.236-0.248,1.483-0.248l-11.622-1.483v-32.887c0,0,0-0.248,0.247-0.248c0.247-0.247,0.247-0.247,0.495-0.247
			c0.247,0,0.495-0.247,0.989-0.247c0.495-0.248,0.989-0.248,1.484-0.248c0.247-0.247,0.742-0.247,1.731-0.495
			c0.989-0.247,1.483-0.247,1.978-0.247c0.248,0,0.495,0,0.989,0s0.989,0,1.731-0.247c0.742,0,1.236-0.248,1.731-0.248
			c0.494,0,0.742-0.247,0.989-0.247c0.248,0,0.248,0,0.742-0.248c0.247-0.247,0.494-0.247,0.494-0.247
			c0.248,0,0.742-0.248,1.484-0.248c0.742-0.247,1.236-0.247,1.483-0.247v-0.742c-0.494-0.248-0.989-0.248-1.483-0.248
			s-0.742-0.247-1.236-0.247s-0.742,0-0.989,0c-0.495,0-0.989,0-1.978,0c-0.989,0-1.978,0-3.215,0c-1.236,0-2.225,0-3.214,0
			s-1.731,0-1.978,0c-0.248,0-0.248-0.247-0.742-0.247c-0.247-0.248-0.494-0.248-0.742-0.495c0,0-0.247,0-0.247-0.248
			c-0.248-0.247-0.248-0.247-0.248-0.247c-0.247-0.248-0.247-0.248-0.494-0.742c-0.248-0.248-0.248-0.495-0.248-0.495v-17.309
			h58.604v20.523h-32.64v7.913H115.8c0.248,0,0.495,0.247,0.989,0.742s0.742,0.989,0.989,1.236c0,0.247,0.247,0.495,0.247,0.989
			c0.248,0.495,0.248,0.989,0.495,1.484s0.247,0.989,0.247,1.483c0,0.495,0.248,0.742,0.248,0.989c0-0.247,0.247-0.495,0.247-0.989
			c0.248-0.494,0.248-0.989,0.495-1.483s0.495-0.989,0.495-1.484c0.247-0.494,0.247-0.742,0.495-0.989
			c0.247-0.248,0.495-0.742,0.989-1.236c0.495-0.495,0.742-0.742,0.989-0.742h11.127v20.523h-33.382v7.913h33.134v20.524h-10.385
			c0,0-0.248,0-0.248-0.247c-0.247-0.248-0.247-0.248-0.494-0.495c0-0.247-0.248-0.247-0.248-0.741
			c-0.247-0.248-0.247-0.495-0.247-0.742c0,0,0-0.494-0.248-1.483c-0.247-0.989-0.247-1.731-0.247-2.226c0-0.247,0-0.494,0-0.742
			c0-0.494-0.247-0.742-0.247-1.236s-0.248-0.988-0.248-1.236c0-0.494,0-0.742,0-0.988l-0.247,0.246
			c-0.248,0.248-0.248,0.248-0.248,0.248c0,0.247-0.247,0.494-0.247,1.236c-0.247,0.742-0.247,0.988-0.247,1.236
			c0,0.247-0.248,0.742-0.248,1.236c0,0.741-0.247,1.236-0.247,1.979c0,0.741-0.248,1.483-0.248,1.978c0,0.742,0,0.989,0,1.236
			H95.523c0,0-0.247-0.247-0.742-0.494s-0.742-0.495-0.989-0.742c0,0,0-0.247-0.248-0.247c-0.247-0.247-0.247-0.247-0.247-0.494
			c-0.248-0.248-0.495-0.742-0.989-1.237c-0.495-0.494-0.742-0.988-0.989-0.988c-0.247-0.248-0.247-0.495-0.494-0.989
			c-0.248-0.494-0.248-0.742-0.495-1.236c-0.248-0.494-0.495-0.742-0.495-0.989s-0.989,0.495-0.989,0.495
			c0-0.248-0.247-0.99-0.247-1.731s-0.248-1.731-0.248-2.473c0-0.989,0-1.731-0.247-2.473c0-0.742,0-1.484,0-1.731
			c0,0.247-0.247,0.742-0.247,1.483c-0.248,0.742-0.248,1.484-0.495,2.225c-0.248,0.742-0.248,1.484-0.248,2.227
			c0,0.741-0.247,1.236-0.247,1.482v7.419l-1.731,1.978H74.753v-17.062C75,392.244,75.247,392.244,75.742,392.244z"/>
		<path id="XMLID_324_" d="M148.935,374.935v-7.418h8.654v-7.418h19.288v-7.666h-36.102v-20.523h61.077v34.618h-8.16v7.418h-8.655
			v7.418h-19.287v7.913h36.102V409.8h-61.077v-34.618h8.16V374.935z"/>
		<path id="XMLID_323_" d="M220.149,385.073c-0.247,0-0.495-0.248-0.989-0.248c-0.495-0.247-0.742-0.247-0.989-0.247
			s-0.495,0-0.989-0.247c-0.494-0.248-0.989-0.248-1.731-0.495c-0.742-0.248-1.236-0.248-1.73-0.248
			c-0.495,0-0.742-0.247-0.989-0.247l-2.473-2.473c-0.248-0.248-0.248-0.248-0.495-0.742c0-0.248,0-0.495,0-0.495v-47.724h59.345
			V369h-6.676v3.709h6.676v36.844h-43.52c0-0.247,0-0.494,0-0.989c0-0.494,0-0.741,0-0.989c0,0,0.248-0.247,0.495-0.741
			c0.248-0.495,0.248-0.742,0.248-0.989v-3.462v-3.956c0-0.248,0-0.742,0-1.484c0-0.741-0.248-1.483-0.248-2.472
			c0-0.742-0.247-1.731-0.247-2.473c0-0.742-0.248-1.237-0.248-1.484s0-0.495-0.247-1.236s-0.247-0.989-0.495-1.236
			c0-0.247,0-0.247-0.247-0.742c-0.248-0.248-0.248-0.495-0.248-0.495v15.825c0,0.248,0,0.495-0.247,0.989s-0.247,0.989-0.495,1.483
			c0,0.247-0.247,0.247-0.247,0.742c-0.248,0.247-0.248,0.494-0.248,0.494c-0.247,0.248-0.494,0.495-0.742,0.742
			c-0.247,0.247-0.742,0.742-0.989,0.989c-0.247,0.247-0.742,0.741-1.236,1.236h-10.385v-22.007c0,0,0.247-0.248,0.742-0.248
			c0.495-0.247,0.742-0.247,1.236-0.247c0,0,0.248,0,0.742,0c0.247,0,0.742-0.248,1.236-0.248c0.494,0,0.742-0.247,1.236-0.247
			c0.247,0,0.494,0,0.742,0c0.247,0,0.495,0,0.989-0.247c0.494-0.248,0.989-0.248,1.483-0.495c0.495-0.248,0.989-0.248,1.484-0.248
			C219.654,385.073,219.902,385.073,220.149,385.073z M235.48,360.098h8.407v-3.462h11.869c-0.247-0.247-0.742-0.247-1.483-0.495
			c-0.742-0.247-1.236-0.247-1.484-0.247c-0.247,0-0.495,0-0.989,0c-0.494,0-0.989-0.247-1.483-0.247s-0.989-0.248-1.483-0.248
			c-0.495,0-0.742,0-0.989,0c-0.248,0-0.742,0-1.236-0.247c-0.495,0-0.989,0-1.236-0.248c-0.495,0-0.989-0.247-1.484-0.247v-1.978
			h-8.407V360.098L235.48,360.098z M235.48,388.782h7.913v-7.418h-7.913V388.782z"/>
		<path id="XMLID_322_" d="M319.059,331.909c0.247,0.247,0.494,0.495,0.741,0.742c0.495,0.248,0.742,0.495,0.989,0.495
			s0.742-0.247,1.236-0.495c0.494-0.247,0.989-0.495,1.236-0.742h12.858v60.829c-0.247,0-0.495,0-0.989,0s-0.742-0.248-0.989-0.248
			s-0.494-0.247-1.236-0.494c-0.741-0.495-0.989-0.495-1.236-0.495s-0.494,0-1.236,0c-0.494,0-1.236-0.248-1.978-0.248
			c-0.742,0-1.484-0.247-1.979-0.247c-0.742,0-1.236,0-1.483,0c0,0-0.248,0-0.742,0c-0.247,0-0.742,0-1.236,0
			c-0.495,0-0.742,0-1.236,0c-0.495,0-0.742,0-0.989,0s-0.494,0-0.989,0c-0.494,0-0.741,0-1.236,0c-0.494,0-0.741,0-0.989,0
			c-0.247,0-0.494,0-0.494,0s-0.247,0-0.742,0.247c-0.494,0.248-0.741,0.248-0.989,0.495c-0.247,0.248-0.741,0.248-1.236,0.495
			c-0.741,0.247-0.988,0.495-1.235,0.495l-0.495,0.495c0,0.247,0,0.247,0,0.247v0.495v0.247c0,0.248,0,0.248,0,0.248
			c0-0.248,0.247-0.248,0.247-0.495c0.248-0.248,0.248-0.248,0.248-0.248c0.247-0.247,0.247-0.247,0.741-0.494
			c0.247-0.248,0.494-0.248,0.742-0.248c0.247-0.247,0.494-0.247,1.236-0.495c0.741-0.247,0.989-0.247,1.236-0.247h3.709h3.709
			c0,0,0.247,0,0.494,0c0.248,0,0.742,0,0.989,0.247c0.495,0,0.742,0.248,1.236,0.248c0.247,0,0.742,0.247,0.742,0.247
			c0.247,0,0.494,0.248,0.989,0.248c0.494,0.247,0.741,0.247,0.988,0.494c0.248,0,0.495,0.248,0.989,0.495
			c0.495,0.248,0.742,0.495,0.742,0.495c0.247,0,0.494,0.248,1.236,0.248c0.742,0.247,0.989,0.247,1.236,0.247
			c0.247,0.247,0.247,0.247,0.742,0.247c0.247,0,0.494,0.248,0.741,0.248c0.247,0.247,0.495,0.247,0.989,0.495v12.858h-25.222
			v-20.771h-8.655v21.019c-0.247,0-0.742,0-1.236,0s-1.236,0-1.978,0s-1.236,0-1.978,0c-0.495,0-0.989,0-1.237,0
			c-0.247,0-0.989-0.247-1.978-0.247c-0.989-0.248-1.483-0.248-1.731-0.248c-0.247,0-0.494-0.247-1.236-0.741
			c-0.742-0.495-0.989-0.495-1.236-0.495c-0.247,0-0.742,0.248-1.483,0.742c-0.495,0.494-0.989,0.742-0.989,0.989h-10.385v-77.396
			H319.059z M302.491,369.742h7.914v-19.535h-7.914V369.742z"/>
		<path id="XMLID_321_" d="M352.688,359.109L352.688,359.109v-0.247l0,0c0-0.247,0-0.247-0.247-0.495
			c-0.248-0.247-0.248-0.247-0.248-0.247c-0.247-0.248-0.741-0.248-1.236-0.742c-0.741-0.247-0.989-0.494-0.989-0.494
			c-0.247,0-0.494-0.248-0.988-0.248c-0.495,0-0.989-0.247-1.484-0.247c-0.494,0-0.988,0-1.483-0.248c-0.494,0-0.741,0-0.989,0
			l-0.494-0.494v-23.738h24.728v57.12h16.319c0.248,0.247,0.248,0.742,0.248,0.989c0.247,0.742,0.247,0.989,0.247,1.236v0.495v0.495
			c0,0.247-0.247,0.247-0.495,0.742c-0.247,0.248-0.494,0.495-0.741,0.742c0,0,0,0.248-0.247,0.495
			c-0.248,0.248-0.495,0.495-0.495,0.989c-0.247,0.247-0.494,0.742-0.494,0.989c-0.247,0.247-0.247,0.494-0.247,0.494
			c-0.248,0.247-0.495,0.742-1.237,1.236c-0.741,0.742-0.988,0.989-1.236,1.237c0.248,0,0.495,0,0.742,0c0.494,0,0.742,0,0.742,0
			c0.247,0,0.494,0,0.741,0c0.495,0,0.742,0,0.742,0s0.247-0.248,0.494-0.495c0.248-0.247,0.495-0.495,0.742-0.742
			s0.742-0.741,0.989-1.236c0.494-0.742,0.741-0.989,0.741-1.236c0,0,0.248-0.247,0.248-0.742c0.247-0.495,0.247-0.742,0.247-0.989
			c0-0.247,0.247-0.494,0.247-0.989s0.247-0.742,0.247-1.236c0.248-0.495,0.248-0.989,0.495-1.236
			c0.247-0.495,0.247-0.742,0.247-0.989h14.095v20.276h-57.862v-48.96c0,0,0.247-0.247,0.495-0.247
			c0.247-0.248,0.494-0.248,0.741-0.248c0.248,0,0.742-0.247,1.484-0.247c0.741,0,1.483-0.248,2.225-0.248
			c0.742,0,1.484,0,2.226-0.247C351.945,359.356,352.44,359.356,352.688,359.109L352.688,359.109z"/>
		<path id="XMLID_320_" d="M450.36,331.909c0.247,0.247,0.494,0.495,0.741,0.742c0.495,0.248,0.742,0.495,0.989,0.495
			s0.742-0.247,1.236-0.495c0.495-0.247,0.989-0.495,1.236-0.742h12.858v60.829c-0.247,0-0.494,0-0.989,0
			c-0.494,0-0.741-0.248-0.989-0.248c-0.247,0-0.494-0.247-1.236-0.494c-0.741-0.495-0.989-0.495-1.236-0.495s-0.494,0-1.236,0
			c-0.494,0-1.236-0.248-1.978-0.248c-0.742,0-1.484-0.247-1.979-0.247c-0.742,0-1.236,0-1.483,0c0,0-0.248,0-0.742,0
			c-0.247,0-0.742,0-1.236,0s-0.742,0-1.236,0s-0.742,0-0.989,0s-0.494,0-0.989,0c-0.494,0-0.741,0-1.236,0
			c-0.494,0-0.741,0-0.989,0c-0.247,0-0.494,0-0.494,0s-0.247,0-0.742,0.247c-0.494,0.248-0.741,0.248-0.988,0.495
			c-0.248,0.248-0.742,0.248-1.236,0.495c-0.742,0.247-0.989,0.495-1.237,0.495l-0.494,0.495c0,0.247,0,0.247,0,0.247v0.495v0.247
			c0,0.248,0,0.248,0,0.248c0-0.248,0.247-0.248,0.247-0.495c0.248-0.248,0.248-0.248,0.248-0.248
			c0.247-0.247,0.247-0.247,0.741-0.494c0.247-0.248,0.495-0.248,0.742-0.248c0.247-0.247,0.494-0.247,1.236-0.495
			c0.741-0.247,0.989-0.247,1.236-0.247h3.709h3.709c0,0,0.247,0,0.494,0c0.248,0,0.742,0,0.989,0.247
			c0.495,0,0.742,0.248,1.236,0.248c0.248,0,0.742,0.247,0.742,0.247c0.247,0,0.494,0.248,0.989,0.248
			c0.494,0.247,0.741,0.247,0.989,0.494c0.247,0,0.494,0.248,0.988,0.495c0.495,0.248,0.742,0.495,0.742,0.495
			c0.247,0,0.494,0.248,1.236,0.248c0.742,0.247,0.989,0.247,1.236,0.247c0.247,0.247,0.247,0.247,0.742,0.247
			c0.247,0,0.494,0.248,0.741,0.248c0.248,0.247,0.495,0.247,0.989,0.495v12.858H442.2v-20.771h-8.654v21.019
			c-0.248,0-0.742,0-1.237,0c-0.494,0-1.236,0-1.978,0c-0.742,0-1.236,0-1.979,0c-0.494,0-0.989,0-1.236,0s-0.989-0.247-1.979-0.247
			c-0.988-0.248-1.483-0.248-1.73-0.248s-0.494-0.247-1.236-0.741c-0.742-0.495-0.989-0.495-1.236-0.495s-0.742,0.248-1.483,0.742
			c-0.495,0.494-0.989,0.742-0.989,0.989h-10.386v-77.396H450.36z M433.793,369.742h7.912v-19.535h-7.912V369.742z"/>
		<path id="XMLID_319_" d="M479.538,398.426L479.538,398.426v-0.248c0-0.247,0-0.247,0-0.247s-0.247-0.247-0.741-0.247
			c-0.495-0.247-0.742-0.247-0.989-0.247c-0.248-0.247-0.495-0.247-1.236-0.495c-0.742-0.247-0.989-0.247-1.236-0.247v-64.785
			h25.222v9.396h9.148v9.149h9.892v9.396h3.709V347.24c0.247,0,0.741,0.247,1.483,0.247s1.73,0.247,2.473,0.247
			c0.989,0,1.731,0.248,2.473,0.248c0.742,0,1.236,0,1.731,0c0.247,0,0.741,0,1.236,0c0.494,0,1.236,0,1.978,0
			c0.742,0,1.236,0,1.979,0s0.989,0,1.236,0c0,0,0-0.248,0.247-0.248s0.247-0.247,0-0.247c0,0-0.247,0-0.741-0.247
			c-0.495-0.248-0.742-0.248-0.989-0.248s-0.742-0.247-0.989-0.247c-0.494-0.248-0.989-0.248-1.483-0.495
			c-0.495,0-0.989-0.248-1.731-0.495c-0.247,0-0.494,0-0.988,0c-0.495,0-1.237-0.247-1.979-0.247c-0.742,0-1.236-0.248-1.979-0.248
			c-0.494,0-0.989,0-1.236,0s-0.494-0.247-0.989-0.247c-0.494-0.248-0.741-0.248-0.989-0.248c-0.247-0.247-0.247-0.247-0.494-0.247
			s-0.247-0.247-0.247-0.247v-12.364h23.738v77.644h-14.095c0,0-0.247-0.247-0.494-0.494c-0.248-0.248-0.495-0.495-0.742-0.742
			c0-0.247-0.247-0.247-0.247-0.742c-0.247-0.247-0.247-0.494-0.247-0.741s-0.248-0.495-0.248-1.236
			c-0.247-0.742-0.247-0.989-0.247-1.236c0-0.248,0-0.495,0-0.742s-0.247-0.989-0.247-1.236s-0.247-0.989-0.247-1.236
			c0-0.495,0-0.741,0-0.741c-0.248-0.495-0.248-0.99-0.495-1.731c-0.247-0.742-0.247-1.236-0.247-1.236h-0.494
			c0,0.247,0,0.989,0,1.978c0,0.99-0.248,1.979-0.248,2.968s-0.247,1.979-0.247,2.967c0,0.989,0,1.484,0,1.979
			c0,0.495-0.247,0.989-0.247,1.483c0,0.495-0.247,0.989-0.247,0.989h-4.451v-9.396h-9.891v-9.15h-9.892v-9.396h-3.709v28.188
			h-24.727v-9.148c0,0,0.247-0.248,0.494-0.494c0.247-0.248,0.494-0.495,0.742-0.742c0.247-0.248,0.741-0.248,1.483-0.494
			C478.797,398.426,479.291,398.426,479.538,398.426z"/>
		<path id="XMLID_318_" d="M609.851,331.909v6.923h6.924v33.135c-0.247,0-0.741,0.247-1.483,0.247
			c-0.742,0.248-1.236,0.248-1.483,0.495c-0.248,0-0.742,0.248-0.989,0.248c-0.495,0.247-0.742,0.247-0.742,0.247v0.248v0.247l0,0
			c0,0.247,0.247,0.247,0.247,0.495c0.248,0.247,0.248,0.247,0.248,0.247c0.247,0,0.494,0,1.236,0c0.741,0,0.989,0,1.236,0
			c0.247,0.248,0.741,0.495,0.989,0.989c0.494,0.495,0.741,0.742,0.741,0.989v25.964h-6.924v6.924h-33.876
			c0-0.247-0.247-0.989-0.247-1.731c-0.247-0.988-0.247-1.483-0.247-1.73s-0.248-0.495-0.248-1.236
			c-0.247-0.742-0.247-0.989-0.247-1.236c-0.247-0.247-0.247-0.742-0.494-0.989c-0.248-0.495-0.248-0.741-0.248-0.741h-0.247l0,0
			l0,0h-0.247c0,0-0.247,0-0.247,0.246c-0.247,0.248-0.247,0.248-0.247,0.248c0,0.247,0,0.494,0,0.989
			c0,0.494-0.248,0.988-0.248,1.483c0,0.494-0.247,0.989-0.247,1.483c0,0.495,0,0.742,0,0.989s0,0.247-0.247,0.742
			c-0.247,0.247-0.247,0.494-0.495,0.741l-0.247,0.247c-0.247,0.248-0.247,0.248-0.494,0.248c-0.247,0.247-0.247,0.247-0.742,0.494
			c-0.247,0.247-0.494,0.247-0.494,0.247h-14.589v-77.891H609.851z M580.92,388.782h10.633v-23.738c0-0.247,0.247-0.247,0.247-0.495
			c0.247-0.247,0.247-0.247,0.247-0.247l0.248-0.247c0.247-0.248,0.494-0.495,0.988-0.989c0.495-0.495,0.742-0.742,0.989-0.742
			c0.248-0.248,0.248-0.248,0.742-0.495c0.247-0.247,0.494-0.247,0.494-0.247c0.495,0,0.989,0,1.979,0
			c0.742,0,1.73-0.248,2.72-0.248s1.979-0.247,2.721-0.247c0.741,0,1.483,0,1.73,0s0.742,0,1.73-0.248
			c0.989-0.247,1.484-0.247,1.979-0.247c0.247,0,0.495-0.247,0.989-0.247c0.494-0.248,0.742-0.248,0.989-0.248l0.494-0.495
			c0-0.247,0-0.247,0-0.247s0,0,0-0.248c-0.494,0-0.989,0-1.978,0c-0.989,0-1.979,0-3.215,0s-2.226,0-3.215,0s-1.73,0-1.979,0
			c-0.247,0-0.494,0-0.741,0s-0.742-0.247-1.236-0.247c-0.495,0-0.742-0.247-1.236-0.247c-0.247,0-0.495,0-0.742,0h-0.989h-0.741
			c0,0-0.248,0.247-0.495,0.494c-0.247,0.248-0.494,0.495-0.741,0.495c-0.248,0-0.495,0.495-0.742,0.495
			c-0.247,0.247-0.494,0.247-0.494,0.247c-0.248,0-0.248,0-0.495-0.247s-0.247-0.247-0.494-0.247v-7.171h-10.633v36.102H580.92z"/>
		<path id="XMLID_317_" d="M132.615,476.069v-43.273h6.182v37.092h24.727v6.182H132.615z"/>
		<path id="XMLID_316_" d="M169.706,438.979v-6.183h6.182v6.183H169.706z M169.706,476.069V445.16h6.182v30.909H169.706z"/>
		<path id="XMLID_315_" d="M188.251,476.069v-24.728h-6.182v-6.182h6.182v-6.182h6.182v6.182h12.364v6.182h-12.364v24.728H188.251z
			 M194.433,438.979v-6.183h12.364v6.183H194.433z"/>
		<path id="XMLID_314_" d="M212.978,469.888v-18.546h6.182v6.182h18.545v-6.182h6.182v12.363H219.16v6.183H212.978z M219.16,451.342
			v-6.182h18.545v6.182H219.16z M219.16,476.069v-6.182h24.727v6.182H219.16z"/>
		<path id="XMLID_313_" d="M262.433,469.888v-18.546h6.182v18.546H262.433z M268.615,451.342v-6.182h18.545v6.182H268.615z
			 M268.615,476.069v-6.182h18.545v6.182H268.615z M287.16,469.888v-18.546h6.182v18.546H287.16z"/>
		<path id="XMLID_312_" d="M305.706,476.069v-24.728h-6.182v-6.182h6.182v-6.182h6.181v6.182h12.364v6.182h-12.364v24.728H305.706z
			 M311.887,438.979v-6.183h12.364v6.183H311.887z"/>
		<path id="XMLID_311_" d="M342.797,469.888v-6.183h6.182v6.183H342.797z M348.979,451.342v-6.182h18.545v6.182H348.979z
			 M348.979,476.069v-6.182h18.545v-6.183h-18.545v-6.182h18.545v-6.182h6.182v24.728H348.979z"/>
		<path id="XMLID_310_" d="M392.251,476.069v-43.273h24.728v6.183h-18.546v6.182h18.546v6.182h-18.546v18.546h18.546v6.182H392.251z
			 M416.979,445.16v-6.182h6.182v6.182H416.979z M416.979,469.888v-18.546h6.182v18.546H416.979z"/>
		<path id="XMLID_309_" d="M429.342,469.888V445.16h6.182v24.728H429.342z M435.523,476.069v-6.182h18.546V445.16h6.182v30.909
			H435.523z"/>
		<path id="XMLID_308_" d="M466.433,476.069V445.16h12.364v6.182h-6.183v24.728H466.433z M478.797,463.705v-12.363h6.182v12.363
			H478.797z M484.979,451.342v-6.182h6.182v6.182H484.979z M491.16,476.069v-24.728h6.182v24.728H491.16z"/>
	</g>
	<g>
		<g>
			<g id="XMLID_258_">
				<path id="XMLID_267_" fill="#999999" d="M15.826,382.276c0,0.247,0.247,0.495,0.247,0.989c0,0.494,0.247,0.742,0.247,1.236
					c0.248,0.495,0.248,0.989,0.248,1.236c0,0.495,0.247,0.742,0.247,0.989c0.495,0,0.495,0.495,0.742,0.989
					c0.248,0.495,0.248,0.742,0.248,0.742c0.247,0.248,0.495,0.495,0.989,1.236c0.494,0.742,0.742,0.989,0.989,1.236l0.989,1.237
					c0,0,0.247,0,0.742,0c0.247,0,0.742,0,0.742,0c0.248,0,0.495,0,0.742,0c0.247,0,0.494,0,0.742,0
					c-0.248-0.248-0.495-0.495-1.236-1.237c-0.742-0.742-0.989-0.989-1.236-1.236c0,0-0.248-0.247-0.495-0.494
					c-0.248-0.248-0.495-0.495-0.495-0.989c-0.247-0.247-0.495-0.742-0.495-0.989c-0.247-0.247-0.247-0.495-0.247-0.495
					c0-0.247-0.248-0.247-0.742-0.742c-0.248-0.247-0.495-0.495-0.495-0.742v-0.247v-0.248v-0.495v-0.247
					c0-0.248,0.247-0.742,0.247-1.236c0.248-0.495,0.248-0.742,0.248-0.742h16.072v-57.12h24.728v23.738l-0.248,0.742
					c-0.247,0-0.494,0-0.989,0s-0.989,0-1.484,0.247c-0.494,0-0.989,0.248-1.483,0.248s-0.742,0.247-0.989,0.247
					c-0.247,0-0.495,0.247-0.989,0.495c-0.495,0.247-0.989,0.495-1.484,0.742l-0.247,0.248c-0.248,0.247-0.248,0.247-0.248,0.494
					l0,0v0.248l0,0v0.247c0.248,0,0.742,0,1.484,0c0.742,0,1.483,0,2.225,0.248c0.742,0,1.484,0.247,2.226,0.247
					s1.236,0.248,1.484,0.248c0.247,0,0.494,0.247,0.742,0.247c0.247,0.247,0.495,0.247,0.495,0.247v48.96H1.978v-20.523H15.826z"/>
				<path id="XMLID_266_" fill="#999999" d="M68.742,385.244c0.495,0,0.989-0.247,1.484-0.247s0.989-0.248,1.483-0.248
					s0.742,0,0.989,0c0.247,0,0.742-0.247,1.731-0.247c0.989-0.248,1.483-0.248,1.978-0.248c0.248,0,0.742-0.247,1.484-0.247
					c0.742-0.248,1.236-0.248,1.483-0.248l-11.622-1.483v-32.887c0,0,0-0.248,0.247-0.248c0.247-0.247,0.247-0.247,0.495-0.247
					c0.247,0,0.495-0.247,0.989-0.247c0.495-0.248,0.989-0.248,1.484-0.248c0.247-0.247,0.742-0.247,1.731-0.495
					c0.989-0.247,1.483-0.247,1.978-0.247c0.248,0,0.495,0,0.989,0s0.989,0,1.731-0.247c0.742,0,1.236-0.248,1.731-0.248
					c0.494,0,0.742-0.247,0.989-0.247c0.248,0,0.248,0,0.742-0.248c0.247-0.247,0.494-0.247,0.494-0.247
					c0.248,0,0.742-0.248,1.484-0.248c0.742-0.247,1.236-0.247,1.483-0.247v-0.742c-0.494-0.248-0.989-0.248-1.483-0.248
					s-0.742-0.247-1.236-0.247s-0.742,0-0.989,0c-0.495,0-0.989,0-1.978,0c-0.989,0-1.978,0-3.215,0c-1.236,0-2.225,0-3.214,0
					s-1.731,0-1.978,0c-0.248,0-0.248-0.247-0.742-0.247c-0.247-0.248-0.494-0.248-0.742-0.495c0,0-0.247,0-0.247-0.248
					c-0.248-0.247-0.248-0.247-0.248-0.247c-0.247-0.248-0.247-0.248-0.494-0.742c-0.248-0.248-0.248-0.495-0.248-0.495v-17.309
					h58.604v20.523h-32.64v7.913H108.8c0.248,0,0.495,0.247,0.989,0.742s0.742,0.989,0.989,1.236c0,0.247,0.247,0.495,0.247,0.989
					c0.248,0.495,0.248,0.989,0.495,1.484s0.247,0.989,0.247,1.483c0,0.495,0.248,0.742,0.248,0.989
					c0-0.247,0.247-0.495,0.247-0.989c0.248-0.494,0.248-0.989,0.495-1.483s0.495-0.989,0.495-1.484
					c0.247-0.494,0.247-0.742,0.495-0.989c0.247-0.248,0.495-0.742,0.989-1.236c0.495-0.495,0.742-0.742,0.989-0.742h11.127v20.523
					H93.469v7.913h33.134v20.524h-10.385c0,0-0.248,0-0.248-0.247c-0.247-0.248-0.247-0.248-0.494-0.495
					c0-0.247-0.248-0.247-0.248-0.741c-0.247-0.248-0.247-0.495-0.247-0.742c0,0,0-0.494-0.248-1.483
					c-0.247-0.989-0.247-1.731-0.247-2.226c0-0.247,0-0.495,0-0.742c0-0.494-0.247-0.742-0.247-1.236
					c0-0.494-0.248-0.989-0.248-1.236c0-0.495,0-0.742,0-0.989l-0.247,0.247c-0.248,0.247-0.248,0.247-0.248,0.247
					c0,0.248-0.247,0.495-0.247,1.237c-0.247,0.742-0.247,0.989-0.247,1.236c0,0.247-0.248,0.742-0.248,1.236
					c0,0.741-0.247,1.236-0.247,1.979c0,0.741-0.248,1.483-0.248,1.978c0,0.742,0,0.989,0,1.236H88.523c0,0-0.247-0.247-0.742-0.494
					s-0.742-0.495-0.989-0.742c0,0,0-0.247-0.248-0.247c-0.247-0.247-0.247-0.247-0.247-0.494c-0.248-0.248-0.495-0.742-0.989-1.237
					c-0.495-0.494-0.742-0.988-0.989-0.988c-0.247-0.248-0.247-0.495-0.494-0.989c-0.248-0.495-0.248-0.742-0.495-1.236
					c-0.248-0.495-0.495-0.742-0.495-0.989s-0.989,0.495-0.989,0.495c0-0.248-0.247-0.989-0.247-1.731s-0.248-1.731-0.248-2.473
					c0-0.989,0-1.731-0.247-2.473c0-0.742,0-1.484,0-1.731c0,0.247-0.247,0.742-0.247,1.483c-0.248,0.742-0.248,1.484-0.495,2.226
					c-0.248,0.742-0.248,1.483-0.248,2.226c0,0.742-0.247,1.236-0.247,1.483v7.418l-1.731,1.978H67.753v-17.062
					C68,385.244,68.247,385.244,68.742,385.244z"/>
				<path id="XMLID_265_" fill="#999999" d="M141.935,367.935v-7.418h8.654v-7.418h19.288v-7.666h-36.102v-20.523h61.077v34.618
					h-8.16v7.418h-8.655v7.418h-19.287v7.913h36.102V402.8h-61.077v-34.618h8.16V367.935z"/>
				<path id="XMLID_264_" fill="#999999" d="M213.149,378.073c-0.247,0-0.495-0.248-0.989-0.248
					c-0.495-0.247-0.742-0.247-0.989-0.247s-0.495,0-0.989-0.247c-0.494-0.248-0.989-0.248-1.731-0.495
					c-0.742-0.248-1.236-0.248-1.73-0.248c-0.495,0-0.742-0.247-0.989-0.247l-2.473-2.473c-0.248-0.248-0.248-0.248-0.495-0.742
					c0-0.248,0-0.495,0-0.495v-47.724h59.345V362h-6.676v3.709h6.676v36.844h-43.52c0-0.247,0-0.494,0-0.989
					c0-0.494,0-0.741,0-0.989c0,0,0.248-0.247,0.495-0.741c0.248-0.495,0.248-0.742,0.248-0.989v-3.462v-3.957
					c0-0.247,0-0.742,0-1.483s-0.248-1.484-0.248-2.473c0-0.742-0.247-1.731-0.247-2.473c0-0.742-0.248-1.237-0.248-1.484
					s0-0.495-0.247-1.236s-0.247-0.989-0.495-1.236c0-0.247,0-0.247-0.247-0.742c-0.248-0.248-0.248-0.495-0.248-0.495v15.825
					c0,0.248,0,0.495-0.247,0.989s-0.247,0.989-0.495,1.483c0,0.247-0.247,0.247-0.247,0.742c-0.248,0.247-0.248,0.494-0.248,0.494
					c-0.247,0.248-0.494,0.495-0.742,0.742c-0.247,0.247-0.742,0.742-0.989,0.989c-0.247,0.247-0.742,0.741-1.236,1.236h-10.385
					v-22.007c0,0,0.247-0.248,0.742-0.248c0.495-0.247,0.742-0.247,1.236-0.247c0,0,0.248,0,0.742,0
					c0.247,0,0.742-0.248,1.236-0.248c0.494,0,0.742-0.247,1.236-0.247c0.247,0,0.494,0,0.742,0c0.247,0,0.495,0,0.989-0.247
					c0.494-0.248,0.989-0.248,1.483-0.495c0.495-0.248,0.989-0.248,1.484-0.248C212.654,378.073,212.902,378.073,213.149,378.073z
					 M228.48,353.098h8.407v-3.462h11.869c-0.247-0.247-0.742-0.247-1.483-0.495c-0.742-0.247-1.236-0.247-1.484-0.247
					c-0.247,0-0.495,0-0.989,0c-0.494,0-0.989-0.247-1.483-0.247s-0.989-0.248-1.483-0.248c-0.495,0-0.742,0-0.989,0
					c-0.248,0-0.742,0-1.236-0.247c-0.495,0-0.989,0-1.236-0.248c-0.495,0-0.989-0.247-1.484-0.247v-1.978h-8.407V353.098
					L228.48,353.098z M228.48,381.782h7.913v-7.418h-7.913V381.782z"/>
				<path id="XMLID_263_" fill="#999999" d="M312.059,324.909c0.247,0.247,0.494,0.495,0.741,0.742
					c0.495,0.248,0.742,0.495,0.989,0.495s0.742-0.247,1.236-0.495c0.494-0.247,0.989-0.495,1.236-0.742h12.858v60.829
					c-0.247,0-0.495,0-0.989,0s-0.742-0.248-0.989-0.248s-0.494-0.247-1.236-0.494c-0.741-0.495-0.989-0.495-1.236-0.495
					s-0.494,0-1.236,0c-0.494,0-1.236-0.248-1.978-0.248c-0.742,0-1.484-0.247-1.979-0.247c-0.742,0-1.236,0-1.483,0
					c0,0-0.248,0-0.742,0c-0.247,0-0.742,0-1.236,0c-0.495,0-0.742,0-1.236,0c-0.495,0-0.742,0-0.989,0s-0.494,0-0.989,0
					c-0.494,0-0.741,0-1.236,0c-0.494,0-0.741,0-0.989,0c-0.247,0-0.494,0-0.494,0s-0.247,0-0.742,0.247
					c-0.494,0.248-0.741,0.248-0.989,0.495c-0.247,0.248-0.741,0.248-1.236,0.495c-0.741,0.247-0.988,0.495-1.236,0.495
					l-0.495,0.495c0,0.247,0,0.247,0,0.247v0.495v0.247c0,0.248,0,0.248,0,0.248c0-0.248,0.247-0.248,0.247-0.495
					c0.248-0.248,0.248-0.248,0.248-0.248c0.248-0.247,0.248-0.247,0.742-0.494c0.247-0.248,0.494-0.248,0.742-0.248
					c0.247-0.247,0.494-0.247,1.236-0.495c0.741-0.247,0.989-0.247,1.236-0.247h3.709h3.709c0,0,0.247,0,0.494,0
					c0.248,0,0.742,0,0.989,0.247c0.495,0,0.742,0.248,1.236,0.248c0.247,0,0.742,0.247,0.742,0.247
					c0.247,0,0.494,0.248,0.989,0.248c0.494,0.247,0.741,0.247,0.988,0.494c0.248,0,0.495,0.248,0.989,0.495
					c0.495,0.248,0.742,0.495,0.742,0.495c0.247,0,0.494,0.248,1.236,0.248c0.742,0.247,0.989,0.247,1.236,0.247
					c0.247,0.247,0.247,0.247,0.742,0.247c0.247,0,0.494,0.248,0.741,0.248c0.247,0.247,0.495,0.247,0.989,0.495v12.858h-25.222
					v-20.771h-8.655v21.019c-0.247,0-0.742,0-1.236,0s-1.236,0-1.978,0s-1.236,0-1.978,0c-0.495,0-0.989,0-1.237,0
					c-0.247,0-0.989-0.247-1.978-0.247c-0.989-0.248-1.483-0.248-1.731-0.248c-0.247,0-0.494-0.247-1.236-0.741
					c-0.742-0.495-0.989-0.495-1.236-0.495c-0.247,0-0.742,0.248-1.483,0.742c-0.495,0.494-0.989,0.742-0.989,0.989h-10.385v-77.396
					H312.059z M295.491,362.742h7.913v-19.535h-7.913V362.742z"/>
				<path id="XMLID_262_" fill="#999999" d="M345.688,352.109L345.688,352.109v-0.247l0,0c0-0.247,0-0.247-0.247-0.495
					c-0.248-0.247-0.248-0.247-0.248-0.247c-0.247-0.248-0.741-0.248-1.236-0.742c-0.741-0.247-0.989-0.494-0.989-0.494
					c-0.247,0-0.494-0.248-0.988-0.248c-0.495,0-0.989-0.247-1.484-0.247c-0.494,0-0.988,0-1.483-0.248c-0.494,0-0.741,0-0.989,0
					l-0.494-0.494v-23.738h24.728v57.12h16.319c0.248,0.247,0.248,0.742,0.248,0.989c0.247,0.742,0.247,0.989,0.247,1.236v0.495
					v0.495c0,0.247-0.247,0.247-0.495,0.742c-0.247,0.248-0.494,0.495-0.741,0.742c0,0,0,0.248-0.247,0.495
					c-0.248,0.248-0.495,0.495-0.495,0.989c-0.247,0.247-0.494,0.742-0.494,0.989c-0.247,0.247-0.247,0.494-0.247,0.494
					c-0.248,0.248-0.495,0.742-1.237,1.236c-0.741,0.742-0.988,0.989-1.236,1.237c0.248,0,0.495,0,0.742,0c0.494,0,0.742,0,0.742,0
					c0.247,0,0.494,0,0.741,0c0.495,0,0.742,0,0.742,0s0.247-0.248,0.494-0.495c0.248-0.248,0.495-0.495,0.742-0.742
					c0.247-0.247,0.742-0.742,0.989-1.236c0.494-0.742,0.741-0.989,0.741-1.236c0,0,0.248-0.247,0.248-0.742
					c0.247-0.495,0.247-0.742,0.247-0.989c0-0.247,0.247-0.494,0.247-0.989s0.247-0.742,0.247-1.236
					c0.248-0.495,0.248-0.989,0.495-1.236c0.247-0.495,0.247-0.742,0.247-0.989h14.095v20.276h-57.862v-48.96
					c0,0,0.247-0.247,0.495-0.247c0.247-0.248,0.494-0.248,0.741-0.248c0.248,0,0.742-0.247,1.484-0.247
					c0.741,0,1.483-0.248,2.225-0.248c0.742,0,1.484,0,2.226-0.247C344.945,352.356,345.44,352.356,345.688,352.109L345.688,352.109
					z"/>
				<path id="XMLID_261_" fill="#999999" d="M443.36,324.909c0.247,0.247,0.494,0.495,0.741,0.742
					c0.495,0.248,0.742,0.495,0.989,0.495s0.742-0.247,1.236-0.495c0.495-0.247,0.989-0.495,1.236-0.742h12.858v60.829
					c-0.247,0-0.494,0-0.989,0c-0.494,0-0.741-0.248-0.989-0.248c-0.247,0-0.494-0.247-1.236-0.494
					c-0.741-0.495-0.989-0.495-1.236-0.495s-0.494,0-1.236,0c-0.494,0-1.236-0.248-1.978-0.248c-0.742,0-1.484-0.247-1.979-0.247
					c-0.742,0-1.236,0-1.483,0c0,0-0.248,0-0.742,0c-0.247,0-0.742,0-1.236,0s-0.742,0-1.236,0s-0.742,0-0.989,0s-0.494,0-0.989,0
					c-0.494,0-0.741,0-1.236,0c-0.494,0-0.741,0-0.989,0c-0.247,0-0.494,0-0.494,0s-0.247,0-0.742,0.247
					c-0.494,0.248-0.741,0.248-0.988,0.495c-0.248,0.248-0.742,0.248-1.236,0.495c-0.742,0.247-0.989,0.495-1.237,0.495
					l-0.494,0.495c0,0.247,0,0.247,0,0.247v0.495v0.247c0,0.248,0,0.248,0,0.248c0-0.248,0.247-0.248,0.247-0.495
					c0.248-0.248,0.248-0.248,0.248-0.248c0.247-0.247,0.247-0.247,0.741-0.494c0.247-0.248,0.495-0.248,0.742-0.248
					c0.247-0.247,0.494-0.247,1.236-0.495c0.741-0.247,0.989-0.247,1.236-0.247h3.709h3.709c0,0,0.247,0,0.494,0
					c0.248,0,0.742,0,0.989,0.247c0.495,0,0.742,0.248,1.236,0.248c0.248,0,0.742,0.247,0.742,0.247
					c0.247,0,0.494,0.248,0.989,0.248c0.494,0.247,0.741,0.247,0.989,0.494c0.247,0,0.494,0.248,0.988,0.495
					c0.495,0.248,0.742,0.495,0.742,0.495c0.247,0,0.494,0.248,1.236,0.248c0.742,0.247,0.989,0.247,1.236,0.247
					c0.247,0.247,0.247,0.247,0.742,0.247c0.247,0,0.494,0.248,0.741,0.248c0.248,0.247,0.495,0.247,0.989,0.495v12.858H435.2
					v-20.771h-8.654v21.019c-0.248,0-0.742,0-1.237,0c-0.494,0-1.236,0-1.978,0c-0.742,0-1.236,0-1.979,0c-0.494,0-0.989,0-1.236,0
					s-0.989-0.247-1.979-0.247c-0.988-0.248-1.483-0.248-1.73-0.248s-0.494-0.247-1.236-0.741c-0.742-0.495-0.989-0.495-1.236-0.495
					s-0.742,0.248-1.483,0.742c-0.495,0.494-0.989,0.742-0.989,0.989h-10.386v-77.396H443.36z M426.793,362.742h7.912v-19.535
					h-7.912V362.742z"/>
				<path id="XMLID_260_" fill="#999999" d="M472.538,391.425L472.538,391.425v-0.247c0-0.248,0-0.248,0-0.248
					s-0.247-0.247-0.741-0.247c-0.495-0.247-0.742-0.247-0.989-0.247c-0.248-0.248-0.495-0.248-1.236-0.495
					c-0.742-0.248-0.989-0.248-1.236-0.248v-64.785h25.222v9.396h9.148v9.149h9.892v9.396h3.709V340.24
					c0.247,0,0.741,0.247,1.483,0.247s1.73,0.247,2.473,0.247c0.989,0,1.731,0.248,2.473,0.248c0.742,0,1.236,0,1.731,0
					c0.247,0,0.741,0,1.236,0c0.494,0,1.236,0,1.978,0c0.742,0,1.236,0,1.979,0s0.989,0,1.236,0c0,0,0-0.248,0.247-0.248
					s0.247-0.247,0-0.247c0,0-0.247,0-0.741-0.247c-0.495-0.248-0.742-0.248-0.989-0.248s-0.742-0.247-0.989-0.247
					c-0.494-0.248-0.989-0.248-1.483-0.495c-0.495,0-0.989-0.248-1.731-0.495c-0.247,0-0.494,0-0.988,0
					c-0.495,0-1.237-0.247-1.979-0.247c-0.742,0-1.236-0.248-1.979-0.248c-0.494,0-0.989,0-1.236,0s-0.494-0.247-0.989-0.247
					c-0.494-0.248-0.741-0.248-0.989-0.248c-0.247-0.247-0.247-0.247-0.494-0.247s-0.247-0.247-0.247-0.247v-12.364h23.738v77.644
					h-14.095c0,0-0.247-0.247-0.494-0.494c-0.248-0.248-0.495-0.495-0.742-0.742c0-0.247-0.247-0.247-0.247-0.742
					c-0.247-0.247-0.247-0.494-0.247-0.741s-0.248-0.495-0.248-1.236c-0.247-0.742-0.247-0.989-0.247-1.236c0-0.248,0-0.495,0-0.742
					s-0.247-0.989-0.247-1.236s-0.247-0.989-0.247-1.236c0-0.495,0-0.742,0-0.742c-0.248-0.495-0.248-0.989-0.495-1.731
					c-0.247-0.742-0.247-1.236-0.247-1.236h-0.494c0,0.247,0,0.989,0,1.978s-0.248,1.978-0.248,2.967s-0.247,1.979-0.247,2.967
					c0,0.989,0,1.484,0,1.979c0,0.495-0.247,0.989-0.247,1.483c0,0.495-0.247,0.989-0.247,0.989h-4.451v-9.396h-9.891v-9.149h-9.892
					v-9.396h-3.709v28.188h-24.727v-9.148c0,0,0.247-0.248,0.494-0.495c0.247-0.248,0.494-0.495,0.742-0.742
					c0.247-0.247,0.741-0.247,1.483-0.494C471.797,391.425,472.291,391.425,472.538,391.425z"/>
				<path id="XMLID_259_" fill="#999999" d="M602.851,324.909v6.923h6.924v33.135c-0.247,0-0.741,0.247-1.483,0.247
					c-0.742,0.248-1.236,0.248-1.483,0.495c-0.248,0-0.742,0.248-0.989,0.248c-0.495,0.247-0.742,0.247-0.742,0.247v0.248v0.247l0,0
					c0,0.247,0.247,0.247,0.247,0.495c0.248,0.247,0.248,0.247,0.248,0.247c0.247,0,0.494,0,1.236,0c0.741,0,0.989,0,1.236,0
					c0.247,0.248,0.741,0.495,0.989,0.989c0.494,0.495,0.741,0.742,0.741,0.989v25.964h-6.924v6.924h-33.876
					c0-0.247-0.247-0.989-0.247-1.731c-0.247-0.988-0.247-1.483-0.247-1.73s-0.248-0.495-0.248-1.236
					c-0.247-0.742-0.247-0.989-0.247-1.236c-0.247-0.247-0.247-0.742-0.494-0.989c-0.248-0.495-0.248-0.742-0.248-0.742h-0.247l0,0
					l0,0h-0.247c0,0-0.247,0-0.247,0.247c-0.247,0.248-0.247,0.248-0.247,0.248c0,0.247,0,0.494,0,0.989
					c0,0.494-0.248,0.988-0.248,1.483c0,0.494-0.247,0.989-0.247,1.483c0,0.495,0,0.742,0,0.989s0,0.247-0.247,0.742
					c-0.247,0.247-0.247,0.494-0.495,0.741l-0.247,0.247c-0.247,0.248-0.247,0.248-0.494,0.248
					c-0.247,0.247-0.247,0.247-0.742,0.494c-0.247,0.247-0.494,0.247-0.494,0.247h-14.589v-77.891H602.851z M573.92,381.782h10.633
					v-23.738c0-0.247,0.247-0.247,0.247-0.495c0.247-0.247,0.247-0.247,0.247-0.247l0.248-0.247
					c0.247-0.248,0.494-0.495,0.988-0.989c0.495-0.495,0.742-0.742,0.989-0.742c0.248-0.248,0.248-0.248,0.742-0.495
					c0.247-0.247,0.494-0.247,0.494-0.247c0.495,0,0.989,0,1.979,0c0.742,0,1.73-0.248,2.72-0.248s1.979-0.247,2.721-0.247
					c0.741,0,1.483,0,1.73,0s0.742,0,1.73-0.248c0.989-0.247,1.484-0.247,1.979-0.247c0.247,0,0.495-0.247,0.989-0.247
					c0.494-0.248,0.742-0.248,0.989-0.248l0.494-0.495c0-0.247,0-0.247,0-0.247s0,0,0-0.248c-0.494,0-0.989,0-1.978,0
					c-0.989,0-1.979,0-3.215,0s-2.226,0-3.215,0s-1.73,0-1.979,0c-0.247,0-0.494,0-0.741,0s-0.742-0.247-1.236-0.247
					c-0.495,0-0.742-0.247-1.236-0.247c-0.247,0-0.495,0-0.742,0h-0.989h-0.741c0,0-0.248,0.247-0.495,0.494
					c-0.247,0.248-0.494,0.495-0.741,0.495c-0.248,0-0.495,0.495-0.742,0.495c-0.247,0.247-0.494,0.247-0.494,0.247
					c-0.248,0-0.248,0-0.495-0.247s-0.247-0.247-0.494-0.247v-7.171h-10.633v36.102H573.92z"/>
			</g>
			<g id="XMLID_247_">
				<path id="XMLID_257_" fill="#999999" d="M125.615,469.069v-43.273h6.182v37.092h24.727v6.182H125.615z"/>
				<path id="XMLID_256_" fill="#999999" d="M162.706,431.979v-6.183h6.182v6.183H162.706z M162.706,469.069V438.16h6.182v30.909
					H162.706z"/>
				<path id="XMLID_255_" fill="#999999" d="M181.251,469.069v-24.728h-6.182v-6.182h6.182v-6.182h6.182v6.182h12.364v6.182h-12.364
					v24.728H181.251z M187.433,431.979v-6.183h12.364v6.183H187.433z"/>
				<path id="XMLID_254_" fill="#999999" d="M205.978,462.888v-18.546h6.182v6.182h18.545v-6.182h6.182v12.363H212.16v6.183H205.978
					z M212.16,444.342v-6.182h18.545v6.182H212.16z M212.16,469.069v-6.182h24.727v6.182H212.16z"/>
				<path id="XMLID_253_" fill="#999999" d="M255.433,462.888v-18.546h6.182v18.546H255.433z M261.615,444.342v-6.182h18.545v6.182
					H261.615z M261.615,469.069v-6.182h18.545v6.182H261.615z M280.16,462.888v-18.546h6.182v18.546H280.16z"/>
				<path id="XMLID_252_" fill="#999999" d="M298.706,469.069v-24.728h-6.182v-6.182h6.182v-6.182h6.182v6.182h12.364v6.182h-12.364
					v24.728H298.706z M304.887,431.979v-6.183h12.364v6.183H304.887z"/>
				<path id="XMLID_251_" fill="#999999" d="M335.797,462.888v-6.183h6.182v6.183H335.797z M341.979,444.342v-6.182h18.545v6.182
					H341.979z M341.979,469.069v-6.182h18.545v-6.183h-18.545v-6.182h18.545v-6.182h6.182v24.728H341.979z"/>
				<path id="XMLID_250_" fill="#999999" d="M385.251,469.069v-43.273h24.728v6.183h-18.546v6.182h18.546v6.182h-18.546v18.546
					h18.546v6.182H385.251z M409.979,438.16v-6.182h6.182v6.182H409.979z M409.979,462.888v-18.546h6.182v18.546H409.979z"/>
				<path id="XMLID_249_" fill="#999999" d="M422.342,462.888V438.16h6.182v24.728H422.342z M428.523,469.069v-6.182h18.546V438.16
					h6.182v30.909H428.523z"/>
				<path id="XMLID_248_" fill="#999999" d="M459.433,469.069V438.16h12.364v6.182h-6.183v24.728H459.433z M471.797,456.705v-12.363
					h6.182v12.363H471.797z M477.979,444.342v-6.182h6.182v6.182H477.979z M484.16,469.069v-24.728h6.182v24.728H484.16z"/>
			</g>
		</g>
	</g>
</g>
</svg>
